# xmcd
#
# Track frame offsets:
#   150
#   15774
#   28962
#   42803
#   60038
#   74567
#   88933
#   101904
#   122778
#   139698
#   154685
#   167067
#   177361
#   201698
#   223132
#
# Disc length: 3255 seconds
#
# Revision: 0
# Processed by: cddbd v1.5.2PL0 Copyright (c) Steve Scherf et al.
# Submitted via: uFREEDB ActiveX Control 1.5
#
DISCID=d80cb50f
DTITLE=CÉSAR OLIVEIRA and ROGÉRIO MELO - RIO-GRANDENSES VOL 1
DYEAR=1900
DGENRE=MÚSICA GAÚCHA
TTITLE0=HINO RIO-GRANDENSE
TTITLE1=CANTIGA PARA O MEU CHÃO
TTITLE2=DOMADOR DE FRONTEIRA
TTITLE3=REGIONAL
TTITLE4=CORAÇÃO DE CORDEONA
TTITLE5=RECUERDO
TTITLE6=PREGO NA BOTA
TTITLE7=APAYSANADO
TTITLE8=LA PROVÍNCIA
TTITLE9=OS LOCO LÁ DA FRONTEIRA
TTITLE10=ZOMBA DE LAS TOLDERIAS
TTITLE11=CHACARERA DEL RANCHO
TTITLE12=A PIOR É MINHA
TTITLE13=SOB AS MANGAS DO AGUACEIRO - DAS VOLTEADAS DE UMA 
TTITLE14=PRA BAILAR DE COLA ATADA
EXTD=
EXTT0=
EXTT1=
EXTT2=
EXTT3=
EXTT4=
EXTT5=
EXTT6=
EXTT7=
EXTT8=
EXTT9=
EXTT10=
EXTT11=
EXTT12=
EXTT13=
EXTT14=
PLAYORDER=
